<svg width="744" height="371" viewBox="0 0 744 371" fill="none" xmlns="http://www.w3.org/2000/svg">
<path d="M677.905 86.2464C705.761 81.7239 729.472 118.172 735.583 141.394C747.974 188.511 736.44 244.636 706.615 283.197C698.775 293.333 687.539 303.002 674.41 304.348C639.542 307.923 626.595 275.664 623.249 246.658C620.455 251.422 618.003 256.969 614.999 261.534C603.192 279.462 583.513 302.805 559.471 298.547C553.746 297.534 547.705 294.792 544.58 289.864C533.951 273.084 535.222 246.968 538.343 228.109C543.567 200.593 551.341 164.958 568.535 141.916C570.784 138.969 574.213 136.171 578.071 135.972C588.93 135.412 588.766 149.139 586.906 156.445C584.512 165.85 579.31 173.177 575.114 181.66C567.874 196.311 560.703 211.041 555.551 226.552C551.174 242.212 550.168 259.308 551.672 275.435C554.778 308.732 580.781 286.983 592.319 272.919C604.456 258.126 615.111 242.788 622.657 225.104C624.143 221.627 624.339 215.914 625.501 212.218C626.402 208.283 628.073 202.943 628.364 199.048C628.346 196.403 627.877 193.573 627.786 190.952C626.617 158.018 637.871 91.5941 677.905 86.2464ZM642.307 168.347C645.827 159.027 672.51 117.487 682.863 133.052L682.947 134.093C682.573 134.443 682.387 134.492 681.883 134.571C674.897 135.667 669.222 142.983 665.397 148.351C662.618 152.251 659.991 156.409 657.862 160.699C653.71 169.07 641.918 199.131 643.24 207.206C644.744 216.377 651.999 225.331 659.406 230.535C668.376 236.836 680.978 238.743 691.648 236.857C695.142 236.239 704.649 233.463 707.399 233.618C708.573 235.017 706.807 236.711 705.67 237.556C697.493 243.644 688.007 245.962 677.919 244.601C676.539 244.428 675.165 244.182 673.81 243.862C660.126 240.553 648.955 229.912 639.869 219.598C639.081 241.479 638.485 267.686 654.575 284.891C663.504 294.442 675.02 296.123 686.184 289.166C693.842 284.397 699.233 277.096 704.021 269.553C718.421 246.816 722.537 218.821 723.169 192.368C723.569 175.713 721.843 158.757 718.538 142.446C714.658 123.297 705.594 96.8695 681.537 99.0181C672.386 99.7303 665.829 103.485 659.886 110.494C648.225 124.253 637.457 150.255 642.307 168.347Z" fill="black"/>
<path d="M245.284 17.9132L246.81 18.3069C253.332 23.4529 233.919 38.548 230.678 41.9252C201.3 72.5376 177.39 107.569 153.087 142.177C149.789 146.872 146.46 151.5 143.243 156.259C149.409 151.666 148.629 150.137 157.219 146.209C164.717 133.536 177.735 120.312 193.736 121.5C200.23 121.997 206.25 125.088 210.439 130.076C223.58 145.413 210.886 173.01 200.502 186.383C195.96 192.234 191.586 198.171 185.851 202.964C182.543 205.728 169.494 215.552 165.594 210.724C164.963 206.73 175.022 200.445 177.837 198.06C180.184 196.074 182.363 193.9 184.353 191.558C193.376 181.116 213.873 149.03 192.357 140.73C170.644 144.878 165.064 177.145 162.643 195.388C159.627 218.112 158.485 243.398 168.068 264.81C174.499 279.18 188.578 286.58 203.287 278.689C231.368 263.249 245.293 227.953 258.699 200.621C262.999 192.054 267.155 183.416 271.167 174.71C273.03 170.677 275.771 164.928 277.202 160.773C276.97 160.041 276.742 159.307 276.518 158.572C272.183 144.263 274.613 129.446 281.629 116.396C285.569 109.069 293.337 95.1384 301.593 92.7896C303.723 92.1835 306.367 92.1363 308.339 93.2674C310.414 94.4578 311.38 96.8862 311.768 99.1337C314.838 116.943 288.039 147.747 290.757 156.7C291.041 157.634 291.59 158.202 292.469 158.605C294.183 159.39 296.719 158.793 298.418 158.263C307.872 155.315 317.636 145.883 324.734 139.139C327.683 136.338 331.706 131.736 335.589 130.351C338.254 129.401 341.439 128.907 344.063 130.244C346.033 131.248 347.265 133.139 347.907 135.207C351.844 147.891 331.839 167.058 325.15 177.112C318.675 186.844 312.71 197.128 307.265 207.471C295.604 229.622 283.354 261.2 291.117 286.022C293.137 292.481 296.613 300.831 303.002 304.081C306.358 305.788 310.319 305.883 313.869 304.731C332.049 298.835 352.911 264.292 362.438 248.351C365.508 243.214 369.69 237.477 371.662 231.827C372.327 229.921 372.469 227.501 372.814 225.493C373.424 221.758 374.147 218.043 374.986 214.353C379.12 195.843 384.751 173.568 393.448 156.65C397.582 149.598 401.876 139.295 410.003 136.341C414.965 134.538 420.36 138.241 421.381 143.239C423.982 156.005 417.12 166.179 411.598 176.913C402.675 194.263 393.434 212.684 388.21 231.526C385.935 241.781 384.875 252.28 385.038 262.847C385.169 271.567 384.624 286.928 393.35 292.047C395.613 293.375 400.125 293.163 402.392 292.147C423.826 282.535 443.65 251.74 453.669 231.668C455.798 227.329 460.212 217.027 464.259 214.294C465.069 213.749 465.65 214.09 466.37 214.392C472.404 221.884 450.124 260.446 444.947 267.654C440.464 273.873 435.356 279.616 429.7 284.791C420.364 293.361 410.933 299.479 397.749 299.03C391.174 298.807 384.043 296.387 379.64 291.378C373.551 284.45 369.846 266.811 370.452 257.953C367.365 263.619 364.171 269.227 360.874 274.775C352.654 288.394 334.791 307.098 318.734 311.014C310.889 312.927 302.868 312.148 295.861 307.969C286.976 302.67 281.19 289.314 278.991 279.721C270.775 243.891 295.28 193.027 313.499 163.498C301.694 166.846 296.688 168.042 284.952 163.872C279.45 177.669 272.578 191.812 266.612 205.484C252.528 237.246 239.377 272.853 206.313 289.491C184.038 300.7 164.05 287.433 154.824 267.008C143.781 242.559 140.606 189.408 149.567 164.909C117.88 190.548 100.104 244.682 93.1911 283.068C92.3043 287.857 91.5618 292.672 90.9638 297.505C90.3637 302.341 90.1537 309.655 87.2166 313.562C77.4029 326.614 67.5485 320.374 65.8371 306.164C65.1418 300.728 65.3474 295.019 65.302 289.623C65.0927 264.73 70.0399 184.197 47.7319 167.872C44.6538 165.617 40.9033 164.469 37.0903 164.617C20.1976 165.206 11.5215 187.691 4.20836 188.077C3.26102 188.127 2.98373 187.818 2.31731 187.24C0.177621 182.386 15.0469 167.529 18.6772 164.486C26.5578 157.519 38.0588 149.572 49.2319 150.476C70.8802 152.227 75.9821 187.056 78.3819 203.938C81.6351 226.821 81.0466 250.692 79.2149 273.613C86.6317 253.321 95.1165 233.436 104.634 214.041C108.933 205.474 113.7 197.662 118.101 189.283C129.189 168.176 140.741 146.612 155.149 127.529C170.333 107.417 185.527 87.342 200.595 67.1078L219.091 42.3492C225.032 34.4819 235.122 19.4898 245.284 17.9132Z" fill="black"/>
<path d="M559.798 2.59717C562.476 2.23318 565.451 2.34962 567.932 3.52838C569.414 4.2323 570.588 5.34294 571.118 6.92145C575.303 19.3637 537.308 71.0158 529.635 84.5349C526.918 89.3238 524.317 94.3463 522.133 99.4015C519.954 104.442 518.108 109.6 515.681 114.533C532.334 111.305 569.16 108.66 582.354 120.496C575.943 122.424 569.425 121.814 562.846 122.346C551.352 123.276 511.943 130.374 505.164 138.61C500.736 143.991 497.953 155.81 496.064 162.654C486.397 197.684 479.404 234.365 476.839 270.637C476.073 281.454 476.447 292.702 477.359 303.499C478.754 319.982 481.933 336.532 488.824 351.662C490.056 354.361 491.65 358.07 493.943 360.005C495.977 361.749 500.707 363.671 500.431 366.749C498.847 367.897 494.753 366.454 493.296 365.586C483.269 359.643 476.843 342.602 473.534 332.003C457.251 279.868 464.764 223.713 476.73 171.533C478.267 164.873 483.535 143.555 486.346 138.045C478.914 139.835 449.354 157.25 445.554 147.583C436.344 124.143 481.224 123.851 493.637 117.045C495.098 114.057 496.889 109.009 498.179 105.717L506.32 85.0793C513.745 66.5191 540.857 8.03987 559.798 2.59717Z" fill="black"/>
<path d="M597.561 85.4554C620.532 84.1058 608.394 112.2 595.247 119.009C576.905 126.155 579.949 89.5574 597.561 85.4554Z" fill="black"/>
<path d="M431.556 85.4514C454.672 84.3147 442.219 112.36 429.148 119.03C428.356 119.354 427.538 119.608 426.703 119.788C421.177 121.01 418.376 117.231 417.305 112.285C415.641 104.609 418.493 96.2932 423.506 90.4302C425.708 87.8547 428.25 86.1494 431.556 85.4514Z" fill="black"/>
</svg>
